<svg width="153" height="39" viewBox="0 0 153 39" fill="none" xmlns="http://www.w3.org/2000/svg">
<g filter="url(#filter0_dd_0_1)">
<path d="M27.9 3H11.9C7.53695 3 4 6.53695 4 10.9V26.9C4 31.2631 7.53695 34.8 11.9 34.8H27.9C32.2631 34.8 35.8 31.2631 35.8 26.9V10.9C35.8 6.53695 32.2631 3 27.9 3Z" fill="white"/>
<path d="M27.9 3H11.9C7.53695 3 4 6.53695 4 10.9V26.9C4 31.2631 7.53695 34.8 11.9 34.8H27.9C32.2631 34.8 35.8 31.2631 35.8 26.9V10.9C35.8 6.53695 32.2631 3 27.9 3Z" fill="url(#paint0_linear_0_1)"/>
<path d="M27.9 3H11.9C7.53695 3 4 6.53695 4 10.9V26.9C4 31.2631 7.53695 34.8 11.9 34.8H27.9C32.2631 34.8 35.8 31.2631 35.8 26.9V10.9C35.8 6.53695 32.2631 3 27.9 3Z" stroke="#D0D5DD" stroke-width="0.2"/>
<path d="M19.255 14.0828C23.6109 12.3504 28.3746 13.7185 30.5377 15.8133C31.0064 16.2671 31.4045 16.7275 31.7454 17.1852C31.9398 16.1107 31.9556 15.0405 31.7685 14.0055C31.0851 10.2265 27.5199 8.08563 24.3237 9.19151C21.1419 10.2924 19.9009 12.4321 19.9009 12.4321C19.9009 12.4321 18.6599 10.2924 15.4781 9.19151C12.2816 8.08563 8.71642 10.2267 8.03319 14.0055C7.52881 16.7944 8.48395 19.8392 10.5107 22.5298C10.9376 22.6732 11.3851 22.7809 11.859 22.8431C14.6982 23.2163 15.7188 22.457 16.9182 21.9486C17.7146 21.6113 18.3138 21.9942 18.2847 22.2626C18.2396 22.6786 16.6697 23.3895 17.0064 23.5388C18.3355 24.1285 19.9722 24.1334 21.2057 23.08C22.7384 21.7712 23.3118 22.6659 23.3118 22.6659C23.3118 22.6659 22.5506 24.6076 20.2585 25.5717C18.3461 26.3761 16.3423 26.5743 14.5111 26.3683C16.0904 27.4846 17.9039 28.4204 19.9009 29.0883C25.6103 27.1784 29.828 23.0871 31.3149 18.8096C30.3076 17.8157 29.072 17.1996 27.5992 16.9763C24.7678 16.5471 23.7326 17.2863 22.5232 17.7708C21.7202 18.0926 21.1289 17.6978 21.1634 17.4299C21.2165 17.0148 22.8003 16.3351 22.4665 16.179C21.1494 15.5633 19.5129 15.526 18.2589 16.5549C16.7007 17.8332 16.145 16.9274 16.145 16.9274C16.145 16.9274 16.9442 15.0015 19.255 14.0828ZM18.1713 19.4052H19.2713V18.3052H20.53V19.4052H21.63V20.6639H20.53V21.7639H19.2713V20.6639H18.1713V19.4052Z" fill="url(#paint1_linear_0_1)"/>
<path d="M18.1708 19.4052H19.2708V18.3052H20.5295V19.4052H21.6294V20.6639H20.5377C22.1596 21.4834 25.1382 22.7027 28.7176 23.2451C29.8955 21.8517 30.7812 20.3428 31.3142 18.8096C30.3068 17.8157 29.0712 17.1996 27.5985 16.9763C24.7671 16.547 23.7318 17.2863 22.5225 17.7708C21.7195 18.0926 21.1281 17.6978 21.1626 17.4299C21.2158 17.0148 22.7996 16.3351 22.4658 16.179C21.1487 15.5633 19.5122 15.526 18.2582 16.5548C16.6999 17.8332 16.1442 16.9274 16.1442 16.9274C16.1442 16.9274 16.9437 15.0013 19.2542 14.0823C23.6101 12.3499 28.3738 13.718 30.5369 15.8128C31.0056 16.2666 31.4037 16.7271 31.7446 17.1847C31.9391 16.1102 31.9549 15.04 31.7678 14.005C31.0843 10.226 27.5191 8.08515 24.3229 9.19103C21.1411 10.2919 19.9001 12.4316 19.9001 12.4316C19.9001 12.4316 18.6591 10.2919 15.4773 9.19103C13.6518 8.5593 11.7066 8.98833 10.2461 10.1752C10.9322 11.6442 11.7359 13.0168 14.0253 15.7773C15.8867 18.0222 18.1708 19.4052 18.1708 19.4052Z" fill="url(#paint2_linear_0_1)"/>
<path opacity="0.31" d="M28.1769 10.5496C25.1711 9.03946 22.0689 11.3892 21.085 12.6299C22.7819 12.2725 24.2667 12.0892 26.1456 12.4839C28.9251 13.0679 29.9653 14.0715 31.2063 15.5542C30.987 12.8069 29.2518 11.0896 28.1769 10.5496Z" fill="url(#paint3_linear_0_1)"/>
</g>
<path d="M50.0568 9.54545L54.5994 23.2841H54.7784L59.3125 9.54545H62.7898L56.6364 27H52.733L46.5881 9.54545H50.0568ZM64.9524 27V13.9091H68.0376V27H64.9524ZM66.5036 12.0511C66.0149 12.0511 65.5945 11.8892 65.2422 11.5653C64.8899 11.2358 64.7138 10.8409 64.7138 10.3807C64.7138 9.91477 64.8899 9.51989 65.2422 9.19602C65.5945 8.86648 66.0149 8.7017 66.5036 8.7017C66.9979 8.7017 67.4183 8.86648 67.7649 9.19602C68.1172 9.51989 68.2933 9.91477 68.2933 10.3807C68.2933 10.8409 68.1172 11.2358 67.7649 11.5653C67.4183 11.8892 66.9979 12.0511 66.5036 12.0511ZM77.7472 13.9091V16.2955H70.2216V13.9091H77.7472ZM72.0795 10.7727H75.1648V23.0625C75.1648 23.4773 75.2273 23.7955 75.3523 24.017C75.483 24.233 75.6534 24.3807 75.8636 24.4602C76.0739 24.5398 76.3068 24.5795 76.5625 24.5795C76.7557 24.5795 76.9318 24.5653 77.0909 24.5369C77.2557 24.5085 77.3807 24.483 77.4659 24.4602L77.9858 26.8722C77.821 26.929 77.5852 26.9915 77.2784 27.0597C76.9773 27.1278 76.608 27.1676 76.1705 27.179C75.3977 27.2017 74.7017 27.0852 74.0824 26.8295C73.4631 26.5682 72.9716 26.1648 72.608 25.6193C72.25 25.0739 72.0739 24.392 72.0795 23.5739V10.7727ZM84.0945 27.2642C83.2649 27.2642 82.5178 27.1165 81.853 26.821C81.1939 26.5199 80.6712 26.0767 80.2848 25.4915C79.9041 24.9062 79.7138 24.1847 79.7138 23.3267C79.7138 22.5881 79.8501 21.9773 80.1229 21.4943C80.3956 21.0114 80.7678 20.625 81.2393 20.3352C81.7109 20.0455 82.2422 19.8267 82.8331 19.679C83.4297 19.5256 84.0462 19.4148 84.6825 19.3466C85.4496 19.267 86.0717 19.196 86.549 19.1335C87.0263 19.0653 87.3729 18.9631 87.5888 18.8267C87.8104 18.6847 87.9212 18.4659 87.9212 18.1705V18.1193C87.9212 17.4773 87.7308 16.9801 87.3501 16.6278C86.9695 16.2756 86.4212 16.0994 85.7053 16.0994C84.9496 16.0994 84.3501 16.2642 83.907 16.5938C83.4695 16.9233 83.174 17.3125 83.0206 17.7614L80.1399 17.3523C80.3672 16.5568 80.7422 15.892 81.2649 15.358C81.7876 14.8182 82.4268 14.4148 83.1825 14.1477C83.9382 13.875 84.7734 13.7386 85.6882 13.7386C86.3189 13.7386 86.9467 13.8125 87.5717 13.9602C88.1967 14.108 88.7678 14.3523 89.2848 14.6932C89.8018 15.0284 90.2166 15.4858 90.5291 16.0653C90.8473 16.6449 91.0064 17.3693 91.0064 18.2386V27H88.0405V25.2017H87.9382C87.7507 25.5653 87.4865 25.9062 87.1456 26.2244C86.8104 26.5369 86.3871 26.7898 85.8757 26.983C85.37 27.1705 84.7763 27.2642 84.0945 27.2642ZM84.8956 24.9972C85.5149 24.9972 86.0518 24.875 86.5064 24.6307C86.9609 24.3807 87.3104 24.0511 87.5547 23.642C87.8047 23.233 87.9297 22.7869 87.9297 22.304V20.7614C87.8331 20.8409 87.6683 20.9148 87.4354 20.983C87.2081 21.0511 86.9524 21.1108 86.6683 21.1619C86.3842 21.2131 86.103 21.2585 85.8246 21.2983C85.5462 21.3381 85.3047 21.3722 85.1001 21.4006C84.6399 21.4631 84.228 21.5653 83.8643 21.7074C83.5007 21.8494 83.2138 22.0483 83.0036 22.304C82.7933 22.554 82.6882 22.8778 82.6882 23.2756C82.6882 23.8438 82.8956 24.2727 83.3104 24.5625C83.7251 24.8523 84.2536 24.9972 84.8956 24.9972ZM97.1939 9.54545V27H94.1087V9.54545H97.1939ZM115.443 15.4347H112.256C112.165 14.9119 111.997 14.4489 111.753 14.0455C111.509 13.6364 111.205 13.2898 110.841 13.0057C110.477 12.7216 110.063 12.5085 109.597 12.3665C109.136 12.2188 108.639 12.1449 108.105 12.1449C107.156 12.1449 106.315 12.3835 105.582 12.8608C104.849 13.3324 104.276 14.0256 103.861 14.9403C103.446 15.8494 103.239 16.9602 103.239 18.2727C103.239 19.608 103.446 20.733 103.861 21.6477C104.281 22.5568 104.855 23.2443 105.582 23.7102C106.315 24.1705 107.153 24.4006 108.097 24.4006C108.619 24.4006 109.108 24.3324 109.562 24.196C110.023 24.054 110.435 23.8466 110.798 23.5739C111.168 23.3011 111.477 22.9659 111.727 22.5682C111.983 22.1705 112.159 21.7159 112.256 21.2045L115.443 21.2216C115.324 22.0511 115.065 22.8295 114.668 23.5568C114.276 24.2841 113.761 24.9261 113.125 25.483C112.489 26.0341 111.744 26.4659 110.892 26.7784C110.04 27.0852 109.094 27.2386 108.054 27.2386C106.52 27.2386 105.151 26.8835 103.946 26.1733C102.741 25.4631 101.793 24.4375 101.099 23.0966C100.406 21.7557 100.06 20.1477 100.06 18.2727C100.06 16.392 100.409 14.7841 101.108 13.4489C101.807 12.108 102.759 11.0824 103.963 10.3722C105.168 9.66193 106.531 9.30682 108.054 9.30682C109.026 9.30682 109.929 9.44318 110.764 9.71591C111.599 9.98864 112.344 10.3892 112.997 10.9176C113.651 11.4403 114.188 12.0824 114.608 12.8438C115.034 13.5994 115.313 14.4631 115.443 15.4347ZM121.969 27.2642C121.14 27.2642 120.393 27.1165 119.728 26.821C119.069 26.5199 118.546 26.0767 118.16 25.4915C117.779 24.9062 117.589 24.1847 117.589 23.3267C117.589 22.5881 117.725 21.9773 117.998 21.4943C118.271 21.0114 118.643 20.625 119.114 20.3352C119.586 20.0455 120.117 19.8267 120.708 19.679C121.305 19.5256 121.921 19.4148 122.558 19.3466C123.325 19.267 123.947 19.196 124.424 19.1335C124.901 19.0653 125.248 18.9631 125.464 18.8267C125.685 18.6847 125.796 18.4659 125.796 18.1705V18.1193C125.796 17.4773 125.606 16.9801 125.225 16.6278C124.844 16.2756 124.296 16.0994 123.58 16.0994C122.825 16.0994 122.225 16.2642 121.782 16.5938C121.344 16.9233 121.049 17.3125 120.896 17.7614L118.015 17.3523C118.242 16.5568 118.617 15.892 119.14 15.358C119.663 14.8182 120.302 14.4148 121.058 14.1477C121.813 13.875 122.648 13.7386 123.563 13.7386C124.194 13.7386 124.822 13.8125 125.447 13.9602C126.072 14.108 126.643 14.3523 127.16 14.6932C127.677 15.0284 128.092 15.4858 128.404 16.0653C128.722 16.6449 128.881 17.3693 128.881 18.2386V27H125.915V25.2017H125.813C125.626 25.5653 125.362 25.9062 125.021 26.2244C124.685 26.5369 124.262 26.7898 123.751 26.983C123.245 27.1705 122.651 27.2642 121.969 27.2642ZM122.771 24.9972C123.39 24.9972 123.927 24.875 124.381 24.6307C124.836 24.3807 125.185 24.0511 125.43 23.642C125.68 23.233 125.805 22.7869 125.805 22.304V20.7614C125.708 20.8409 125.543 20.9148 125.31 20.983C125.083 21.0511 124.827 21.1108 124.543 21.1619C124.259 21.2131 123.978 21.2585 123.7 21.2983C123.421 21.3381 123.18 21.3722 122.975 21.4006C122.515 21.4631 122.103 21.5653 121.739 21.7074C121.376 21.8494 121.089 22.0483 120.879 22.304C120.668 22.554 120.563 22.8778 120.563 23.2756C120.563 23.8438 120.771 24.2727 121.185 24.5625C121.6 24.8523 122.129 24.9972 122.771 24.9972ZM131.984 27V13.9091H134.975V16.0909H135.112C135.35 15.3352 135.759 14.7528 136.339 14.3438C136.924 13.929 137.592 13.7216 138.342 13.7216C138.512 13.7216 138.702 13.7301 138.913 13.7472C139.129 13.7585 139.308 13.7784 139.45 13.8068V16.6449C139.319 16.5994 139.112 16.5597 138.827 16.5256C138.549 16.4858 138.279 16.4659 138.018 16.4659C137.455 16.4659 136.95 16.5881 136.501 16.8324C136.058 17.071 135.708 17.4034 135.452 17.8295C135.197 18.2557 135.069 18.7472 135.069 19.304V27H131.984ZM146.756 27.2557C145.443 27.2557 144.31 26.983 143.355 26.4375C142.406 25.8864 141.676 25.108 141.165 24.1023C140.653 23.0909 140.398 21.9006 140.398 20.5312C140.398 19.1847 140.653 18.0028 141.165 16.9858C141.682 15.9631 142.403 15.1676 143.33 14.5994C144.256 14.0256 145.344 13.7386 146.594 13.7386C147.401 13.7386 148.162 13.8693 148.878 14.1307C149.599 14.3864 150.236 14.7841 150.787 15.3239C151.344 15.8636 151.781 16.5511 152.099 17.3864C152.418 18.2159 152.577 19.2045 152.577 20.3523V21.2983H141.847V19.2188H149.619C149.614 18.6278 149.486 18.1023 149.236 17.642C148.986 17.1761 148.636 16.8097 148.188 16.5426C147.744 16.2756 147.227 16.142 146.636 16.142C146.006 16.142 145.452 16.2955 144.974 16.6023C144.497 16.9034 144.125 17.3011 143.858 17.7955C143.597 18.2841 143.463 18.821 143.457 19.4062V21.2216C143.457 21.983 143.597 22.6364 143.875 23.1818C144.153 23.7216 144.543 24.1364 145.043 24.4261C145.543 24.7102 146.128 24.8523 146.798 24.8523C147.247 24.8523 147.653 24.7898 148.017 24.6648C148.381 24.5341 148.696 24.3438 148.963 24.0938C149.23 23.8438 149.432 23.5341 149.568 23.1648L152.449 23.4886C152.267 24.25 151.92 24.9148 151.409 25.483C150.903 26.0455 150.256 26.483 149.466 26.7955C148.676 27.1023 147.773 27.2557 146.756 27.2557Z" fill="white"/>
<defs>
<filter id="filter0_dd_0_1" x="0.900391" y="0.900024" width="38" height="38" filterUnits="userSpaceOnUse" color-interpolation-filters="sRGB">
<feFlood flood-opacity="0" result="BackgroundImageFix"/>
<feColorMatrix in="SourceAlpha" type="matrix" values="0 0 0 0 0 0 0 0 0 0 0 0 0 0 0 0 0 0 127 0" result="hardAlpha"/>
<feOffset dy="1"/>
<feGaussianBlur stdDeviation="1"/>
<feColorMatrix type="matrix" values="0 0 0 0 0.0627451 0 0 0 0 0.0941176 0 0 0 0 0.156863 0 0 0 0.06 0"/>
<feBlend mode="normal" in2="BackgroundImageFix" result="effect1_dropShadow_0_1"/>
<feColorMatrix in="SourceAlpha" type="matrix" values="0 0 0 0 0 0 0 0 0 0 0 0 0 0 0 0 0 0 127 0" result="hardAlpha"/>
<feOffset dy="1"/>
<feGaussianBlur stdDeviation="1.5"/>
<feColorMatrix type="matrix" values="0 0 0 0 0.0627451 0 0 0 0 0.0941176 0 0 0 0 0.156863 0 0 0 0.1 0"/>
<feBlend mode="normal" in2="effect1_dropShadow_0_1" result="effect2_dropShadow_0_1"/>
<feBlend mode="normal" in="SourceGraphic" in2="effect2_dropShadow_0_1" result="shape"/>
</filter>
<linearGradient id="paint0_linear_0_1" x1="19.9" y1="2.9" x2="19.9" y2="34.9" gradientUnits="userSpaceOnUse">
<stop stop-color="white"/>
<stop offset="1" stop-color="#D0D5DD"/>
</linearGradient>
<linearGradient id="paint1_linear_0_1" x1="11.0993" y1="25.1137" x2="28.7351" y2="7.47793" gradientUnits="userSpaceOnUse">
<stop stop-color="#0076C1"/>
<stop offset="0.0737" stop-color="#0B82C6"/>
<stop offset="0.2766" stop-color="#269ED3"/>
<stop offset="0.4546" stop-color="#36AFDA"/>
<stop offset="0.587" stop-color="#3CB5DD"/>
</linearGradient>
<linearGradient id="paint2_linear_0_1" x1="11.0387" y1="25.1537" x2="28.7273" y2="7.46512" gradientUnits="userSpaceOnUse">
<stop stop-color="#00A482"/>
<stop offset="1" stop-color="#79DD83"/>
</linearGradient>
<linearGradient id="paint3_linear_0_1" x1="25.7607" y1="14.4073" x2="29.4287" y2="11.0132" gradientUnits="userSpaceOnUse">
<stop stop-color="#00A482"/>
<stop offset="1" stop-color="#79DD83"/>
</linearGradient>
</defs>
</svg>
